<?xml version="1.0" encoding="UTF-8"?>
<!-- Generator: Adobe Illustrator 16.0.0, SVG Export Plug-In . SVG Version: 6.00 Build 0)  -->
<!DOCTYPE svg PUBLIC "-//W3C//DTD SVG 1.1//EN" "http://www.w3.org/Graphics/SVG/1.1/DTD/svg11.dtd">
<svg version="1.1" id="圖層_1" xmlns="http://www.w3.org/2000/svg" xmlns:xlink="http://www.w3.org/1999/xlink" x="0px" y="0px" width="115px" height="28px" viewBox="199.705 8.388 115 28" enable-background="new 199.705 8.388 115 28" xml:space="preserve">
<g>
	<path fill="#5CA4D6" d="M200.557,31.816L200.557,31.816c0.994,0.568,2.84,1.277,4.685,1.277c2.414,0,3.691-1.277,3.691-2.84   c0-1.703-1.136-2.557-3.549-3.549c-3.549-1.279-5.253-3.125-5.253-5.397c0-3.123,2.698-5.678,6.815-5.678   c1.845,0,3.549,0.426,4.685,1.135l-0.852,2.556c-0.852-0.425-2.271-1.136-3.975-1.136c-2.13,0-3.124,1.136-3.124,2.697   c0,1.562,0.994,2.272,3.549,3.266c3.266,1.277,4.969,2.98,4.969,5.82c0,3.408-2.556,5.822-7.099,5.822   c-2.13,0-4.117-0.568-5.395-1.42L200.557,31.816z"/>
	<path fill="#5CA4D6" d="M225.971,10.518L225.971,10.518c0,1.136-0.852,2.129-2.272,2.129c-1.277,0-2.129-0.994-2.129-2.129   c0-1.137,0.994-2.13,2.271-2.13S225.971,9.24,225.971,10.518 M221.996,15.913L221.996,15.913h3.549v19.452h-3.549V15.913z"/>
	<path fill="#5CA4D6" d="M236.618,25.142L236.618,25.142c0-3.123,1.137-5.394,2.699-7.241c1.278-1.277,3.549-2.271,5.961-2.271   h0.853v3.408c-0.284-0.143-0.569-0.143-1.137-0.143c-2.413,0-4.259,1.846-4.684,4.403c-0.143,0.564-0.143,1.135-0.143,1.703v10.363   h-3.549V25.142z"/>
	<path fill="#5CA4D6" d="M270.978,25.425L270.978,25.425c0,7.242-4.97,10.365-9.655,10.365c-5.111,0-9.229-3.834-9.229-10.08   c0-6.39,4.26-10.081,9.655-10.081C267.286,15.63,270.978,19.604,270.978,25.425 M255.643,25.71L255.643,25.71   c0,4.258,2.415,7.383,5.822,7.383s5.963-3.125,5.963-7.523c0-3.267-1.704-7.383-5.82-7.383   C257.489,18.186,255.643,22.018,255.643,25.71"/>
	<path fill="#5CA4D6" d="M292.983,34.656L292.983,34.656c-0.852,0.424-2.839,1.135-5.537,1.135c-5.821,0-9.654-3.975-9.654-9.797   c0-6.105,4.117-10.364,10.506-10.364c1.987,0,3.834,0.426,4.827,0.994l-0.852,2.696c-0.853-0.425-2.129-0.851-3.976-0.851   c-4.543,0-6.814,3.266-6.814,7.241c0,4.402,2.839,7.242,6.672,7.242c1.989,0,3.266-0.428,4.261-0.996L292.983,34.656z"/>
	<path fill="#5CA4D6" d="M314.563,30.679L314.563,30.679c0,1.705,0,3.264,0.142,4.686h-3.124l-0.283-2.414   c-1.136,1.42-3.266,2.84-5.963,2.84c-3.976,0-5.963-2.84-5.963-5.678c0-4.543,4.259-7.1,11.642-7.1v-0.428   c0-1.561-0.426-4.398-4.4-4.398c-1.847,0-3.691,0.566-5.111,1.418l-0.711-2.271c1.562-0.994,3.976-1.703,6.39-1.703   c5.963,0,7.383,3.975,7.383,7.809V30.679z M311.156,25.425L311.156,25.425c-3.834,0-8.234,0.709-8.234,4.402   c0,2.271,1.561,3.266,3.265,3.266c2.556,0,4.259-1.562,4.827-3.125c0.143-0.424,0.143-0.85,0.143-1.135V25.425z"/>
</g>
</svg>